<svg xmlns="http://www.w3.org/2000/svg" viewBox="-40.809997329711905 36.64500427246094 656.6199951171875 501.7100009918213"> <svg xmlns="http://www.w3.org/2000/svg" viewBox="0.004588127136230469 0.00249481201171875 1302.19970703125 1358.027587890625" height="258" width="247.39374080446873" y="106.64500427246094" x="163.80499809265137" preserveAspectRatio="xMinYMin" style="overflow: visible;"><path id="Layer_1-2" dataName="Layer 1" class="cls-1" d="M1290.7,1190.18,757.2,67.06c-42.48-89.41-169.72-89.41-212.19,0L11.5,1190.18c-37,77.93,19.82,167.85,106.1,167.85H242.44c15-212.61,192.23-380.44,408.66-380.44s393.66,167.83,408.67,380.44H1184.6C1270.89,1358,1327.72,1268.11,1290.7,1190.18Zm-639.6-270c-103.56,0-187.51-83.95-187.51-187.51S547.54,545.13,651.1,545.13s187.51,84,187.51,187.51S754.66,920.15,651.1,920.15Z" style="fill: #ffffff; fill-opacity: 1;"></path></svg> <svg y="455.64500427246094" viewBox="1.6400001049041748 4.389999866485596 516.6199951171875 12.710000991821289" x="29.190002670288095" height="12.710000991821289" width="516.6199951171875" style="overflow: visible;"><g fill="#ffffff" fill-opacity="1" style=""><path d="M10.37 17.01L10.37 17.01Q9.92 17.01 9.51 16.83Q9.11 16.65 8.85 16.15Q8.59 15.64 8.59 14.69L8.59 14.69Q8.59 13.79 8.40 13.21Q8.21 12.64 7.88 12.30Q7.56 11.97 7.20 11.83Q6.84 11.68 6.50 11.68L6.50 11.68L3.55 11.68L3.55 16.92L1.64 16.92L1.64 4.57L7.42 4.57Q8.30 4.57 9.04 4.95Q9.77 5.33 10.24 6.01Q10.71 6.70 10.71 7.63L10.71 7.63Q10.71 8.37 10.41 9Q10.12 9.63 9.62 10.10Q9.13 10.57 8.53 10.80L8.53 10.80L8.53 10.89Q8.71 10.94 9.03 11.12Q9.34 11.29 9.68 11.63Q10.01 11.97 10.24 12.56Q10.48 13.16 10.48 14.04L10.48 14.04Q10.48 14.69 10.54 15.11Q10.60 15.53 10.71 15.78Q10.82 16.02 11.00 16.16Q11.18 16.29 11.39 16.38L11.39 16.38L11.39 16.85Q11.23 16.92 10.95 16.97Q10.67 17.01 10.37 17.01ZM3.55 6.08L3.55 10.17L6.89 10.17Q7.43 10.17 7.86 9.84Q8.28 9.50 8.54 8.97Q8.80 8.44 8.80 7.85L8.80 7.85Q8.80 7.00 8.27 6.54Q7.74 6.08 6.91 6.08L6.91 6.08L3.55 6.08ZM26.07 16.92L17.77 16.92L17.77 4.57L25.94 4.57L25.71 6.08L19.68 6.08L19.68 9.86L25.13 9.86L25.13 11.38L19.68 11.38L19.68 15.41L25.82 15.41L26.07 16.92ZM32.89 16.92L31.02 16.92L35.81 4.57L37.97 4.57L42.74 16.92L40.72 16.92L39.64 14.15L33.99 14.15L32.89 16.92ZM36.78 6.73L34.51 12.69L39.10 12.69L36.85 6.73L36.78 6.73ZM56.21 16.92L48.47 16.92L48.47 4.57L50.38 4.57L50.38 15.41L55.96 15.41L56.21 16.92ZM70.65 16.92L68.78 16.92L73.57 4.57L75.73 4.57L80.50 16.92L78.48 16.92L77.40 14.15L71.75 14.15L70.65 16.92ZM74.54 6.73L72.27 12.69L76.86 12.69L74.61 6.73L74.54 6.73ZM90.71 16.92L86.23 16.92L86.23 4.57L90.71 4.57Q91.75 4.57 92.65 4.87Q93.55 5.17 94.24 5.83Q94.94 6.50 95.32 7.56Q95.69 8.62 95.69 10.17L95.69 10.17L95.69 10.98Q95.69 12.51 95.32 13.63Q94.94 14.74 94.24 15.48Q93.55 16.22 92.65 16.57Q91.75 16.92 90.71 16.92L90.71 16.92ZM88.13 6.08L88.13 15.41L90.58 15.41Q91.46 15.41 92.17 15.02Q92.87 14.63 93.28 13.76Q93.70 12.89 93.70 11.41L93.70 11.41L93.70 9.86Q93.70 8.42 93.28 7.60Q92.87 6.77 92.17 6.43Q91.46 6.08 90.58 6.08L90.58 6.08L88.13 6.08ZM107.45 16.92L105.38 16.92L101.03 4.57L103.04 4.57L106.46 14.33L106.55 14.33L109.95 4.57L111.81 4.57L107.45 16.92ZM121.93 16.92L117.14 16.92L117.14 15.41L118.56 15.41L118.56 6.08L117.14 6.08L117.14 4.57L121.93 4.57L121.93 6.08L120.49 6.08L120.49 15.41L121.93 15.41L121.93 16.92ZM133.31 17.10L133.09 17.10Q132.05 17.10 131.15 16.80Q130.25 16.51 129.57 15.82Q128.90 15.14 128.51 14.01Q128.12 12.89 128.12 11.21L128.12 11.21L128.12 10.26Q128.12 8.62 128.52 7.50Q128.92 6.37 129.60 5.69Q130.28 5.00 131.17 4.70Q132.07 4.39 133.09 4.39L133.09 4.39L133.33 4.39Q134.26 4.39 135.12 4.64Q135.97 4.90 136.62 5.47Q137.27 6.05 137.66 6.98Q138.04 7.92 138.04 9.29L138.04 9.29L136.22 9.29Q136.22 7.94 135.82 7.21Q135.41 6.48 134.73 6.19Q134.05 5.90 133.18 5.90L133.18 5.90Q132.52 5.90 131.96 6.09Q131.40 6.28 130.99 6.73Q130.57 7.18 130.35 7.95Q130.12 8.71 130.12 9.86L130.12 9.86L130.12 11.63Q130.12 13.16 130.51 14.02Q130.90 14.89 131.58 15.24Q132.26 15.59 133.16 15.59L133.16 15.59Q134.06 15.59 134.77 15.30Q135.47 15.01 135.87 14.28Q136.28 13.55 136.28 12.22L136.28 12.22L138.04 12.22Q138.04 13.52 137.66 14.45Q137.29 15.39 136.63 15.97Q135.97 16.54 135.12 16.82Q134.26 17.10 133.31 17.10L133.31 17.10ZM152.99 16.92L144.69 16.92L144.69 4.57L152.86 4.57L152.63 6.08L146.60 6.08L146.60 9.86L152.05 9.86L152.05 11.38L146.60 11.38L146.60 15.41L152.73 15.41L152.99 16.92ZM171.77 16.92L166.98 16.92L166.98 15.41L168.40 15.41L168.40 6.08L166.98 6.08L166.98 4.57L171.77 4.57L171.77 6.08L170.33 6.08L170.33 15.41L171.77 15.41L171.77 16.92ZM180.25 16.92L178.52 16.92L178.52 4.57L180.12 4.57L185.25 12.31L185.96 13.48L186.03 13.46L186.03 4.57L187.76 4.57L187.76 16.92L186.10 16.92L180.83 8.93L180.30 8.05L180.25 8.06L180.25 16.92ZM211.83 17.01L211.83 17.01Q211.38 17.01 210.98 16.83Q210.57 16.65 210.31 16.15Q210.05 15.64 210.05 14.69L210.05 14.69Q210.05 13.79 209.86 13.21Q209.67 12.64 209.35 12.30Q209.02 11.97 208.66 11.83Q208.30 11.68 207.96 11.68L207.96 11.68L205.01 11.68L205.01 16.92L203.10 16.92L203.10 4.57L208.88 4.57Q209.76 4.57 210.50 4.95Q211.24 5.33 211.70 6.01Q212.17 6.70 212.17 7.63L212.17 7.63Q212.17 8.37 211.88 9Q211.58 9.63 211.08 10.10Q210.59 10.57 209.99 10.80L209.99 10.80L209.99 10.89Q210.17 10.94 210.49 11.12Q210.80 11.29 211.14 11.63Q211.47 11.97 211.70 12.56Q211.94 13.16 211.94 14.04L211.94 14.04Q211.94 14.69 212.00 15.11Q212.06 15.53 212.17 15.78Q212.28 16.02 212.46 16.16Q212.64 16.29 212.86 16.38L212.86 16.38L212.86 16.85Q212.69 16.92 212.42 16.97Q212.14 17.01 211.83 17.01ZM205.01 6.08L205.01 10.17L208.36 10.17Q208.90 10.17 209.32 9.84Q209.74 9.50 210.00 8.97Q210.26 8.44 210.26 7.85L210.26 7.85Q210.26 7.00 209.73 6.54Q209.20 6.08 208.37 6.08L208.37 6.08L205.01 6.08ZM227.53 16.92L219.23 16.92L219.23 4.57L227.40 4.57L227.17 6.08L221.14 6.08L221.14 9.86L226.59 9.86L226.59 11.38L221.14 11.38L221.14 15.41L227.28 15.41L227.53 16.92ZM234.36 16.92L232.48 16.92L237.27 4.57L239.43 4.57L244.20 16.92L242.19 16.92L241.11 14.15L235.45 14.15L234.36 16.92ZM238.24 6.73L235.98 12.69L240.57 12.69L238.32 6.73L238.24 6.73ZM257.67 16.92L249.93 16.92L249.93 4.57L251.84 4.57L251.84 15.41L257.42 15.41L257.67 16.92ZM276.25 16.92L274.33 16.92L274.33 6.08L270.53 6.08L270.53 4.57L280.05 4.57L280.05 6.08L276.25 6.08L276.25 16.92ZM290.44 16.92L285.65 16.92L285.65 15.41L287.08 15.41L287.08 6.08L285.65 6.08L285.65 4.57L290.44 4.57L290.44 6.08L289.00 6.08L289.00 15.41L290.44 15.41L290.44 16.92ZM298.91 16.92L297.20 16.92L297.20 4.57L300.27 4.57L304.09 14.17L304.13 14.17L307.96 4.57L311.06 4.57L311.06 16.92L309.15 16.92L309.15 6.77L309.06 6.77L305.04 16.92L302.99 16.92L299.00 6.77L298.91 6.77L298.91 16.92ZM326.61 16.92L318.31 16.92L318.31 4.57L326.49 4.57L326.25 6.08L320.22 6.08L320.22 9.86L325.68 9.86L325.68 11.38L320.22 11.38L320.22 15.41L326.36 15.41L326.61 16.92ZM348.47 12.87L339.47 12.87L339.47 11.23L348.47 11.23L348.47 12.87ZM370.93 17.01L370.93 17.01Q370.48 17.01 370.07 16.83Q369.67 16.65 369.41 16.15Q369.14 15.64 369.14 14.69L369.14 14.69Q369.14 13.79 368.96 13.21Q368.77 12.64 368.44 12.30Q368.12 11.97 367.76 11.83Q367.40 11.68 367.06 11.68L367.06 11.68L364.10 11.68L364.10 16.92L362.20 16.92L362.20 4.57L367.97 4.57Q368.86 4.57 369.59 4.95Q370.33 5.33 370.80 6.01Q371.27 6.70 371.27 7.63L371.27 7.63Q371.27 8.37 370.97 9Q370.67 9.63 370.18 10.10Q369.68 10.57 369.09 10.80L369.09 10.80L369.09 10.89Q369.27 10.94 369.59 11.12Q369.90 11.29 370.23 11.63Q370.57 11.97 370.80 12.56Q371.03 13.16 371.03 14.04L371.03 14.04Q371.03 14.69 371.10 15.11Q371.16 15.53 371.27 15.78Q371.38 16.02 371.56 16.16Q371.74 16.29 371.95 16.38L371.95 16.38L371.95 16.85Q371.79 16.92 371.51 16.97Q371.23 17.01 370.93 17.01ZM364.10 6.08L364.10 10.17L367.45 10.17Q367.99 10.17 368.42 9.84Q368.84 9.50 369.10 8.97Q369.36 8.44 369.36 7.85L369.36 7.85Q369.36 7.00 368.83 6.54Q368.30 6.08 367.47 6.08L367.47 6.08L364.10 6.08ZM386.63 16.92L378.33 16.92L378.33 4.57L386.50 4.57L386.27 6.08L380.24 6.08L380.24 9.86L385.69 9.86L385.69 11.38L380.24 11.38L380.24 15.41L386.37 15.41L386.63 16.92ZM393.45 16.92L391.58 16.92L396.37 4.57L398.53 4.57L403.30 16.92L401.28 16.92L400.20 14.15L394.55 14.15L393.45 16.92ZM397.34 6.73L395.07 12.69L399.66 12.69L397.41 6.73L397.34 6.73ZM416.77 16.92L409.03 16.92L409.03 4.57L410.93 4.57L410.93 15.41L416.51 15.41L416.77 16.92ZM435.08 16.92L430.29 16.92L430.29 15.41L431.71 15.41L431.71 6.08L430.29 6.08L430.29 4.57L435.08 4.57L435.08 6.08L433.64 6.08L433.64 15.41L435.08 15.41L435.08 16.92ZM443.54 16.92L441.83 16.92L441.83 4.57L444.91 4.57L448.73 14.17L448.76 14.17L452.60 4.57L455.69 4.57L455.69 16.92L453.79 16.92L453.79 6.77L453.70 6.77L449.68 16.92L447.63 16.92L443.63 6.77L443.54 6.77L443.54 16.92ZM464.86 16.92L462.95 16.92L462.95 4.57L468.53 4.57Q469.50 4.57 470.30 5.01Q471.09 5.45 471.55 6.23Q472.01 7.00 472.01 7.96L472.01 7.96L472.01 8.14Q472.01 9.09 471.52 9.92Q471.03 10.75 470.24 11.24Q469.45 11.74 468.44 11.74L468.44 11.74L464.86 11.74L464.86 16.92ZM464.86 6.08L464.86 10.22L468.08 10.22Q468.68 10.22 469.13 9.95Q469.58 9.67 469.84 9.19Q470.10 8.71 470.10 8.12L470.10 8.12Q470.10 7.25 469.53 6.67Q468.96 6.08 468.05 6.08L468.05 6.08L464.86 6.08ZM478.24 16.92L476.37 16.92L481.15 4.57L483.31 4.57L488.08 16.92L486.07 16.92L484.99 14.15L479.34 14.15L478.24 16.92ZM482.13 6.73L479.86 12.69L484.45 12.69L482.20 6.73L482.13 6.73ZM498.53 17.10L498.31 17.10Q497.27 17.10 496.37 16.80Q495.47 16.51 494.79 15.82Q494.12 15.14 493.73 14.01Q493.34 12.89 493.34 11.21L493.34 11.21L493.34 10.26Q493.34 8.62 493.74 7.50Q494.14 6.37 494.82 5.69Q495.50 5.00 496.40 4.70Q497.29 4.39 498.31 4.39L498.31 4.39L498.55 4.39Q499.48 4.39 500.34 4.64Q501.19 4.90 501.84 5.47Q502.49 6.05 502.88 6.98Q503.26 7.92 503.26 9.29L503.26 9.29L501.44 9.29Q501.44 7.94 501.04 7.21Q500.63 6.48 499.95 6.19Q499.27 5.90 498.40 5.90L498.40 5.90Q497.74 5.90 497.18 6.09Q496.62 6.28 496.21 6.73Q495.79 7.18 495.57 7.95Q495.34 8.71 495.34 9.86L495.34 9.86L495.34 11.63Q495.34 13.16 495.73 14.02Q496.12 14.89 496.80 15.24Q497.48 15.59 498.38 15.59L498.38 15.59Q499.28 15.59 499.99 15.30Q500.69 15.01 501.09 14.28Q501.50 13.55 501.50 12.22L501.50 12.22L503.26 12.22Q503.26 13.52 502.88 14.45Q502.51 15.39 501.85 15.97Q501.19 16.54 500.34 16.82Q499.48 17.10 498.53 17.10L498.53 17.10ZM514.46 16.92L512.54 16.92L512.54 6.08L508.74 6.08L508.74 4.57L518.26 4.57L518.26 6.08L514.46 6.08L514.46 16.92Z" transform="translate(0, 0)"></path></g></svg> <svg y="387.64500427246094" viewBox="3.4800000190734863 14.09000015258789 355.3699951171875 46.57999801635742" x="109.81500541687012" height="46.57999801635742" width="355.3699951171875" style="overflow: visible;"><g fill="#ffffff" fill-opacity="1" style=""><path d="M12.00 43.01L29.10 43.01L29.10 34.46Q29.10 32.70 28.43 31.14Q27.76 29.58 26.60 28.42Q25.44 27.25 23.87 26.58Q22.31 25.91 20.55 25.91L20.55 25.91Q18.79 25.91 17.23 26.58Q15.67 27.25 14.51 28.42Q13.34 29.58 12.67 31.14Q12.00 32.70 12.00 34.46L12.00 34.46L12.00 43.01ZM37.65 34.46L37.65 60.08L29.10 60.08L29.10 51.53L12.00 51.53L12.00 60.08L3.48 60.08L3.48 34.46Q3.48 30.92 4.83 27.80Q6.17 24.69 8.47 22.37Q10.78 20.05 13.89 18.71Q17.01 17.36 20.55 17.36L20.55 17.36Q24.10 17.36 27.21 18.71Q30.32 20.05 32.64 22.37Q34.97 24.69 36.31 27.80Q37.65 30.92 37.65 34.46L37.65 34.46ZM74.73 15.49L74.73 60.08L72.77 60.08L69.61 55.70Q68.45 56.74 67.15 57.65Q65.85 58.56 64.43 59.23Q63.00 59.90 61.49 60.29Q59.99 60.67 58.44 60.67L58.44 60.67Q55.07 60.67 52.11 59.41Q49.15 58.14 46.93 55.89Q44.71 53.64 43.43 50.56Q42.15 47.48 42.15 43.84L42.15 43.84Q42.15 40.24 43.43 37.14Q44.71 34.04 46.93 31.78Q49.15 29.52 52.11 28.24Q55.07 26.96 58.44 26.96L58.44 26.96Q59.51 26.96 60.66 27.13Q61.80 27.31 62.89 27.72Q63.98 28.12 64.93 28.77Q65.88 29.43 66.54 30.38L66.54 30.38L66.54 15.49L74.73 15.49ZM66.54 43.84L66.54 43.84Q66.54 42.18 65.90 40.61Q65.26 39.05 64.16 37.84Q63.06 36.64 61.58 35.91Q60.11 35.18 58.44 35.18L58.44 35.18Q56.77 35.18 55.30 35.77Q53.82 36.37 52.73 37.48Q51.65 38.60 51.02 40.21Q50.40 41.82 50.40 43.84L50.40 43.84Q50.40 45.60 51.02 47.18Q51.65 48.76 52.73 49.95Q53.82 51.14 55.30 51.83Q56.77 52.51 58.44 52.51L58.44 52.51Q60.11 52.51 61.58 51.78Q63.06 51.05 64.16 49.85Q65.26 48.64 65.90 47.08Q66.54 45.51 66.54 43.84ZM98.14 60.08L89.98 60.08L77.83 28.18L87.09 28.18L94.06 48.07L101.00 28.18L110.29 28.18L98.14 60.08ZM122.98 19.51L122.98 19.51Q122.98 20.64 122.55 21.62Q122.12 22.61 121.37 23.34Q120.63 24.07 119.63 24.50Q118.63 24.93 117.50 24.93L117.50 24.93Q116.37 24.93 115.37 24.50Q114.38 24.07 113.65 23.34Q112.92 22.61 112.48 21.62Q112.05 20.64 112.05 19.51L112.05 19.51Q112.05 18.41 112.48 17.41Q112.92 16.41 113.65 15.68Q114.38 14.95 115.37 14.52Q116.37 14.09 117.50 14.09L117.50 14.09Q118.63 14.09 119.63 14.52Q120.63 14.95 121.37 15.68Q122.12 16.41 122.55 17.41Q122.98 18.41 122.98 19.51ZM121.58 28.18L121.58 60.08L113.39 60.08L113.39 28.18L121.58 28.18ZM155.66 34.52L155.66 34.52L149.70 40.51Q149.25 39.26 148.48 38.26Q147.70 37.26 146.74 36.58Q145.77 35.89 144.64 35.53Q143.50 35.18 142.31 35.18L142.31 35.18Q140.65 35.18 139.17 35.86Q137.70 36.55 136.61 37.78Q135.52 39.02 134.90 40.72Q134.27 42.41 134.27 44.47L134.27 44.47Q134.27 46.14 134.90 47.60Q135.52 49.06 136.61 50.16Q137.70 51.26 139.17 51.89Q140.65 52.51 142.31 52.51L142.31 52.51Q143.50 52.51 144.61 52.18Q145.71 51.86 146.68 51.25Q147.65 50.63 148.40 49.76Q149.16 48.88 149.64 47.81L149.64 47.81L155.60 53.79Q154.47 55.40 152.99 56.68Q151.52 57.96 149.80 58.86Q148.09 59.75 146.20 60.21Q144.31 60.67 142.31 60.67L142.31 60.67Q138.95 60.67 135.98 59.41Q133.02 58.14 130.80 55.94Q128.58 53.73 127.30 50.78Q126.02 47.83 126.02 44.47L126.02 44.47Q126.02 40.81 127.30 37.62Q128.58 34.43 130.80 32.06Q133.02 29.70 135.98 28.33Q138.95 26.96 142.31 26.96L142.31 26.96Q144.31 26.96 146.23 27.46Q148.15 27.97 149.89 28.94Q151.64 29.90 153.11 31.30Q154.58 32.70 155.66 34.52ZM187.08 33.90L171.83 52.27Q172.31 52.42 172.78 52.47Q173.26 52.51 173.74 52.51L173.74 52.51Q174.93 52.51 176.03 52.18Q177.13 51.86 178.10 51.25Q179.07 50.63 179.83 49.76Q180.59 48.88 181.06 47.81L181.06 47.81L187.02 53.79Q185.89 55.40 184.41 56.68Q182.94 57.96 181.23 58.86Q179.52 59.75 177.62 60.21Q175.73 60.67 173.74 60.67L173.74 60.67Q170.37 60.67 167.41 59.42Q164.44 58.17 162.22 55.94Q160.01 53.70 158.73 50.62Q157.44 47.54 157.44 43.84L157.44 43.84Q157.44 40.06 158.73 36.93Q160.01 33.81 162.22 31.60Q164.44 29.40 167.41 28.18Q170.37 26.96 173.74 26.96L173.74 26.96Q175.73 26.96 177.64 27.43Q179.54 27.91 181.26 28.80Q182.97 29.70 184.46 30.99Q185.95 32.29 187.08 33.90L187.08 33.90ZM166.53 48.07L176.00 35.50Q175.43 35.30 174.88 35.24Q174.33 35.18 173.74 35.18L173.74 35.18Q172.07 35.18 170.59 35.79Q169.12 36.40 168.03 37.53Q166.95 38.66 166.32 40.25Q165.69 41.85 165.69 43.84L165.69 43.84Q165.69 44.29 165.74 44.86Q165.78 45.42 165.89 46.00Q165.99 46.58 166.14 47.12Q166.29 47.66 166.53 48.07L166.53 48.07ZM226.19 25.91L217.64 25.91L217.64 43.01L226.19 43.01Q227.95 43.01 229.49 42.34Q231.04 41.67 232.21 40.51Q233.37 39.35 234.04 37.78Q234.71 36.22 234.71 34.46L234.71 34.46Q234.71 32.70 234.04 31.14Q233.37 29.58 232.21 28.42Q231.04 27.25 229.49 26.58Q227.95 25.91 226.19 25.91L226.19 25.91ZM217.64 51.53L217.64 60.08L209.09 60.08L209.09 17.36L226.19 17.36Q228.54 17.36 230.72 17.98Q232.89 18.59 234.78 19.70Q236.67 20.82 238.24 22.38Q239.80 23.95 240.92 25.85Q242.03 27.76 242.64 29.93Q243.26 32.11 243.26 34.46L243.26 34.46Q243.26 36.67 242.70 38.75Q242.15 40.84 241.13 42.71Q240.10 44.59 238.61 46.17Q237.12 47.75 235.27 48.91L235.27 48.91L240.01 60.08L230.92 60.08L227.20 51.47L217.64 51.53ZM278.46 43.84L278.46 43.84Q278.46 47.42 277.18 50.50Q275.90 53.58 273.70 55.83Q271.49 58.08 268.53 59.38Q265.56 60.67 262.17 60.67L262.17 60.67Q258.80 60.67 255.84 59.38Q252.88 58.08 250.66 55.83Q248.44 53.58 247.16 50.50Q245.88 47.42 245.88 43.84L245.88 43.84Q245.88 40.21 247.16 37.11Q248.44 34.01 250.66 31.77Q252.88 29.52 255.84 28.24Q258.80 26.96 262.17 26.96L262.17 26.96Q265.56 26.96 268.53 28.16Q271.49 29.37 273.70 31.59Q275.90 33.81 277.18 36.92Q278.46 40.03 278.46 43.84ZM270.27 43.84L270.27 43.84Q270.27 41.88 269.63 40.28Q268.99 38.69 267.89 37.54Q266.79 36.40 265.31 35.79Q263.84 35.18 262.17 35.18L262.17 35.18Q260.50 35.18 259.03 35.79Q257.55 36.40 256.47 37.54Q255.38 38.69 254.75 40.28Q254.13 41.88 254.13 43.84L254.13 43.84Q254.13 45.69 254.75 47.27Q255.38 48.85 256.47 50.01Q257.55 51.17 259.03 51.84Q260.50 52.51 262.17 52.51L262.17 52.51Q263.84 52.51 265.31 51.89Q266.79 51.26 267.89 50.13Q268.99 49.00 269.63 47.39Q270.27 45.78 270.27 43.84ZM313.79 43.84L313.79 43.84Q313.79 47.42 312.51 50.50Q311.23 53.58 309.02 55.83Q306.82 58.08 303.85 59.38Q300.89 60.67 297.49 60.67L297.49 60.67Q294.13 60.67 291.16 59.38Q288.20 58.08 285.98 55.83Q283.76 53.58 282.48 50.50Q281.20 47.42 281.20 43.84L281.20 43.84Q281.20 40.21 282.48 37.11Q283.76 34.01 285.98 31.77Q288.20 29.52 291.16 28.24Q294.13 26.96 297.49 26.96L297.49 26.96Q300.89 26.96 303.85 28.16Q306.82 29.37 309.02 31.59Q311.23 33.81 312.51 36.92Q313.79 40.03 313.79 43.84ZM305.60 43.84L305.60 43.84Q305.60 41.88 304.96 40.28Q304.31 38.69 303.21 37.54Q302.11 36.40 300.64 35.79Q299.16 35.18 297.49 35.18L297.49 35.18Q295.83 35.18 294.35 35.79Q292.88 36.40 291.79 37.54Q290.70 38.69 290.08 40.28Q289.45 41.88 289.45 43.84L289.45 43.84Q289.45 45.69 290.08 47.27Q290.70 48.85 291.79 50.01Q292.88 51.17 294.35 51.84Q295.83 52.51 297.49 52.51L297.49 52.51Q299.16 52.51 300.64 51.89Q302.11 51.26 303.21 50.13Q304.31 49.00 304.96 47.39Q305.60 45.78 305.60 43.84ZM358.85 39.82L358.85 60.08L350.75 60.08L350.75 39.82Q350.75 38.99 350.44 38.24Q350.12 37.50 349.56 36.93Q348.99 36.37 348.25 36.05Q347.50 35.74 346.67 35.74L346.67 35.74Q345.84 35.74 345.11 36.05Q344.38 36.37 343.82 36.93Q343.27 37.50 342.96 38.24Q342.65 38.99 342.65 39.82L342.65 39.82L342.65 60.08L334.52 60.08L334.52 39.82Q334.52 38.99 334.20 38.24Q333.89 37.50 333.33 36.93Q332.76 36.37 332.02 36.05Q331.27 35.74 330.44 35.74L330.44 35.74Q329.60 35.74 328.87 36.05Q328.14 36.37 327.59 36.93Q327.04 37.50 326.73 38.24Q326.42 38.99 326.42 39.82L326.42 39.82L326.42 60.08L318.28 60.08L318.28 28.18L320.25 28.18L322.45 30.62Q324.15 29.19 326.19 28.40Q328.23 27.61 330.44 27.61L330.44 27.61Q332.67 27.61 334.80 28.44Q336.93 29.28 338.54 31.33L338.54 31.33Q339.28 30.32 340.24 29.61Q341.19 28.89 342.25 28.44Q343.30 28.00 344.44 27.80Q345.57 27.61 346.67 27.61L346.67 27.61Q349.20 27.61 351.42 28.56Q353.64 29.52 355.29 31.17Q356.95 32.82 357.90 35.06Q358.85 37.29 358.85 39.82L358.85 39.82Z" transform="translate(0, 0)"></path></g></svg></svg>